<svg width="25" height="32" viewBox="0 0 25 32" fill="none" xmlns="http://www.w3.org/2000/svg">
<path d="M12.667 7.5C11.5854 7.5 10.528 7.82074 9.62872 8.42165C8.72939 9.02256 8.02844 9.87667 7.61453 10.8759C7.20061 11.8752 7.09231 12.9748 7.30332 14.0357C7.51434 15.0965 8.03518 16.0709 8.8 16.8357C9.56482 17.6006 10.5393 18.1214 11.6001 18.3324C12.6609 18.5434 13.7605 18.4351 14.7598 18.0212C15.7591 17.6073 16.6132 16.9064 17.2141 16.007C17.815 15.1077 18.1357 14.0504 18.1357 12.9688C18.1357 11.5183 17.5596 10.1273 16.534 9.10176C15.5084 8.07617 14.1174 7.5 12.667 7.5ZM12.667 16.25C12.018 16.25 11.3836 16.0576 10.844 15.697C10.3044 15.3365 9.88386 14.824 9.63551 14.2244C9.38716 13.6249 9.32218 12.9651 9.44879 12.3286C9.5754 11.6921 9.88791 11.1074 10.3468 10.6486C10.8057 10.1897 11.3904 9.87716 12.0269 9.75055C12.6634 9.62394 13.3231 9.68892 13.9227 9.93727C14.5222 10.1856 15.0347 10.6062 15.3953 11.1458C15.7558 11.6854 15.9482 12.3198 15.9482 12.9688C15.9482 13.839 15.6025 14.6736 14.9872 15.2889C14.3718 15.9043 13.5372 16.25 12.667 16.25ZM12.667 0.9375C9.47722 0.941119 6.41912 2.20986 4.16361 4.46537C1.9081 6.72088 0.639361 9.77897 0.635742 12.9688C0.635742 17.2617 2.61953 21.8117 6.37793 26.1279C8.06671 28.0783 9.96742 29.8346 12.0449 31.3643C12.2288 31.4931 12.4479 31.5622 12.6725 31.5622C12.897 31.5622 13.1161 31.4931 13.3 31.3643C15.3737 29.8339 17.2707 28.0777 18.9561 26.1279C22.709 21.8117 24.6982 17.2617 24.6982 12.9688C24.6946 9.77897 23.4259 6.72088 21.1704 4.46537C18.9149 2.20986 15.8568 0.941119 12.667 0.9375ZM12.667 29.1016C10.407 27.3242 2.82324 20.7959 2.82324 12.9688C2.82324 10.358 3.86035 7.85423 5.70641 6.00817C7.55247 4.16211 10.0563 3.125 12.667 3.125C15.2777 3.125 17.7815 4.16211 19.6276 6.00817C21.4736 7.85423 22.5107 10.358 22.5107 12.9688C22.5107 20.7932 14.927 27.3242 12.667 29.1016Z" fill="#2F5B98"/>
</svg>
