<svg width="34" height="27" viewBox="0 0 34 27" fill="none" xmlns="http://www.w3.org/2000/svg">
<path d="M32.4062 24.1875H30.2188V8.875C30.5088 8.875 30.787 8.75977 30.9921 8.55465C31.1973 8.34953 31.3125 8.07133 31.3125 7.78125C31.3125 7.49117 31.1973 7.21297 30.9921 7.00785C30.787 6.80273 30.5088 6.6875 30.2188 6.6875H23.6562V2.3125C23.9463 2.3125 24.2245 2.19727 24.4296 1.99215C24.6348 1.78703 24.75 1.50883 24.75 1.21875C24.75 0.928669 24.6348 0.65047 24.4296 0.445352C24.2245 0.240234 23.9463 0.125 23.6562 0.125H3.96875C3.67867 0.125 3.40047 0.240234 3.19535 0.445352C2.99023 0.65047 2.875 0.928669 2.875 1.21875C2.875 1.50883 2.99023 1.78703 3.19535 1.99215C3.40047 2.19727 3.67867 2.3125 3.96875 2.3125V24.1875H1.78125C1.49117 24.1875 1.21297 24.3027 1.00785 24.5079C0.802734 24.713 0.6875 24.9912 0.6875 25.2812C0.6875 25.5713 0.802734 25.8495 1.00785 26.0546C1.21297 26.2598 1.49117 26.375 1.78125 26.375H32.4062C32.6963 26.375 32.9745 26.2598 33.1796 26.0546C33.3848 25.8495 33.5 25.5713 33.5 25.2812C33.5 24.9912 33.3848 24.713 33.1796 24.5079C32.9745 24.3027 32.6963 24.1875 32.4062 24.1875ZM28.0312 8.875V24.1875H23.6562V8.875H28.0312ZM6.15625 2.3125H21.4688V24.1875H18.1875V17.625C18.1875 17.3349 18.0723 17.0567 17.8671 16.8516C17.662 16.6465 17.3838 16.5312 17.0938 16.5312H10.5312C10.2412 16.5312 9.96297 16.6465 9.75785 16.8516C9.55273 17.0567 9.4375 17.3349 9.4375 17.625V24.1875H6.15625V2.3125ZM16 24.1875H11.625V18.7188H16V24.1875ZM8.34375 6.6875C8.34375 6.39742 8.45898 6.11922 8.6641 5.9141C8.86922 5.70898 9.14742 5.59375 9.4375 5.59375H11.625C11.9151 5.59375 12.1933 5.70898 12.3984 5.9141C12.6035 6.11922 12.7188 6.39742 12.7188 6.6875C12.7188 6.97758 12.6035 7.25578 12.3984 7.4609C12.1933 7.66602 11.9151 7.78125 11.625 7.78125H9.4375C9.14742 7.78125 8.86922 7.66602 8.6641 7.4609C8.45898 7.25578 8.34375 6.97758 8.34375 6.6875ZM14.9062 6.6875C14.9062 6.39742 15.0215 6.11922 15.2266 5.9141C15.4317 5.70898 15.7099 5.59375 16 5.59375H18.1875C18.4776 5.59375 18.7558 5.70898 18.9609 5.9141C19.166 6.11922 19.2812 6.39742 19.2812 6.6875C19.2812 6.97758 19.166 7.25578 18.9609 7.4609C18.7558 7.66602 18.4776 7.78125 18.1875 7.78125H16C15.7099 7.78125 15.4317 7.66602 15.2266 7.4609C15.0215 7.25578 14.9062 6.97758 14.9062 6.6875ZM8.34375 12.1562C8.34375 11.8662 8.45898 11.588 8.6641 11.3829C8.86922 11.1777 9.14742 11.0625 9.4375 11.0625H11.625C11.9151 11.0625 12.1933 11.1777 12.3984 11.3829C12.6035 11.588 12.7188 11.8662 12.7188 12.1562C12.7188 12.4463 12.6035 12.7245 12.3984 12.9296C12.1933 13.1348 11.9151 13.25 11.625 13.25H9.4375C9.14742 13.25 8.86922 13.1348 8.6641 12.9296C8.45898 12.7245 8.34375 12.4463 8.34375 12.1562ZM14.9062 12.1562C14.9062 11.8662 15.0215 11.588 15.2266 11.3829C15.4317 11.1777 15.7099 11.0625 16 11.0625H18.1875C18.4776 11.0625 18.7558 11.1777 18.9609 11.3829C19.166 11.588 19.2812 11.8662 19.2812 12.1562C19.2812 12.4463 19.166 12.7245 18.9609 12.9296C18.7558 13.1348 18.4776 13.25 18.1875 13.25H16C15.7099 13.25 15.4317 13.1348 15.2266 12.9296C15.0215 12.7245 14.9062 12.4463 14.9062 12.1562Z" fill="#2F5B98"/>
</svg>
