<svg width="36" height="30" viewBox="0 0 36 30" fill="none" xmlns="http://www.w3.org/2000/svg">
<path d="M34.7399 18.3437C34.4499 18.3437 34.1717 18.4589 33.9665 18.664C33.7614 18.8691 33.6462 19.1473 33.6462 19.4374V21.6249H27.5362L25.0329 19.1175L31.9153 12.2337C32.3253 11.8235 32.5555 11.2673 32.5555 10.6874C32.5555 10.1075 32.3253 9.55132 31.9153 9.14112L24.2591 1.48487C24.056 1.28169 23.8148 1.12052 23.5493 1.01056C23.2839 0.900592 22.9994 0.843994 22.7121 0.843994C22.4248 0.843994 22.1403 0.900592 21.8749 1.01056C21.6094 1.12052 21.3683 1.28169 21.1651 1.48487L1.23291 21.48C1.04215 21.6714 0.912373 21.9149 0.859957 22.18C0.807541 22.4451 0.834841 22.7197 0.93841 22.9693C1.04198 23.2188 1.21717 23.4321 1.44187 23.5822C1.66656 23.7322 1.93069 23.8124 2.20088 23.8124H7.5835L12.4124 28.64C12.8226 29.0499 13.3788 29.2802 13.9587 29.2802C14.5386 29.2802 15.0948 29.0499 15.505 28.64L23.4825 20.6679L25.9899 23.1712C26.1923 23.3752 26.4333 23.537 26.6987 23.647C26.9642 23.7571 27.2489 23.8133 27.5362 23.8124H33.6462V25.9999C33.6462 26.29 33.7614 26.5682 33.9665 26.7733C34.1717 26.9784 34.4499 27.0937 34.7399 27.0937C35.03 27.0937 35.3082 26.9784 35.5133 26.7733C35.7185 26.5682 35.8337 26.29 35.8337 25.9999V19.4374C35.8337 19.1473 35.7185 18.8691 35.5133 18.664C35.3082 18.4589 35.03 18.3437 34.7399 18.3437ZM22.7087 3.03116L24.4437 4.76612L7.5835 21.6249H4.17784L22.7087 3.03116ZM13.9587 27.0937L9.5837 22.7187L25.9899 6.31241L30.3649 10.6874L13.9587 27.0937Z" fill="#2F5B98"/>
</svg>
