<svg width="34" height="32" viewBox="0 0 34 32" fill="none" xmlns="http://www.w3.org/2000/svg">
<path d="M33.4062 16.25C33.4062 16.5401 33.291 16.8183 33.0859 17.0234C32.8808 17.2285 32.6026 17.3438 32.3125 17.3438H30.0334C29.7729 18.872 28.9806 20.259 27.7965 21.2597C26.6124 22.2604 25.1128 22.8104 23.5625 22.8125H18.0938V26.0938H21.375C22.5353 26.0938 23.6481 26.5547 24.4686 27.3752C25.2891 28.1956 25.75 29.3084 25.75 30.4688C25.75 30.7588 25.6348 31.037 25.4296 31.2421C25.2245 31.4473 24.9463 31.5625 24.6562 31.5625C24.3662 31.5625 24.088 31.4473 23.8829 31.2421C23.6777 31.037 23.5625 30.7588 23.5625 30.4688C23.5625 29.8886 23.332 29.3322 22.9218 28.922C22.5116 28.5117 21.9552 28.2812 21.375 28.2812H18.0938V30.4688C18.0938 30.7588 17.9785 31.037 17.7734 31.2421C17.5683 31.4473 17.2901 31.5625 17 31.5625C16.7099 31.5625 16.4317 31.4473 16.2266 31.2421C16.0215 31.037 15.9062 30.7588 15.9062 30.4688V28.2812H12.625C12.0448 28.2812 11.4884 28.5117 11.0782 28.922C10.668 29.3322 10.4375 29.8886 10.4375 30.4688C10.4375 30.7588 10.3223 31.037 10.1171 31.2421C9.91203 31.4473 9.63383 31.5625 9.34375 31.5625C9.05367 31.5625 8.77547 31.4473 8.57035 31.2421C8.36523 31.037 8.25 30.7588 8.25 30.4688C8.25 29.3084 8.71094 28.1956 9.53141 27.3752C10.3519 26.5547 11.4647 26.0938 12.625 26.0938H15.9062V22.8125H10.4375C8.88721 22.8104 7.38756 22.2604 6.20349 21.2597C5.01942 20.259 4.22713 18.872 3.9666 17.3438H1.6875C1.39742 17.3438 1.11922 17.2285 0.914102 17.0234C0.708984 16.8183 0.59375 16.5401 0.59375 16.25C0.59375 15.9599 0.708984 15.6817 0.914102 15.4766C1.11922 15.2715 1.39742 15.1562 1.6875 15.1562H4.96875C5.25883 15.1562 5.53703 15.2715 5.74215 15.4766C5.94727 15.6817 6.0625 15.9599 6.0625 16.25C6.0625 17.4103 6.52344 18.5231 7.34391 19.3436C8.16438 20.1641 9.27718 20.625 10.4375 20.625H23.5625C24.7228 20.625 25.8356 20.1641 26.6561 19.3436C27.4766 18.5231 27.9375 17.4103 27.9375 16.25C27.9375 15.9599 28.0527 15.6817 28.2579 15.4766C28.463 15.2715 28.7412 15.1562 29.0312 15.1562H32.3125C32.6026 15.1562 32.8808 15.2715 33.0859 15.4766C33.291 15.6817 33.4062 15.9599 33.4062 16.25ZM8.78457 17.6828C8.57938 17.4461 8.42742 17.1681 8.33897 16.8676C8.25052 16.5671 8.22764 16.2511 8.27188 15.941L10.1477 2.81602C10.2242 2.2956 10.4848 1.81988 10.8822 1.47521C11.2795 1.13053 11.7873 0.939752 12.3133 0.9375H21.6867C22.2127 0.939752 22.7205 1.13053 23.1178 1.47521C23.5152 1.81988 23.7758 2.2956 23.8523 2.81602L25.7281 15.941C25.7724 16.2513 25.7495 16.5674 25.6609 16.868C25.5724 17.1686 25.4203 17.4467 25.215 17.6834C25.0096 17.9201 24.7558 18.11 24.4707 18.2401C24.1856 18.3702 23.8759 18.4375 23.5625 18.4375H10.4375C10.124 18.4375 9.81415 18.3701 9.52897 18.2399C9.24378 18.1097 8.98992 17.9197 8.78457 17.6828ZM10.4375 16.25H23.5625L21.6867 3.125H12.3119L10.4375 16.25Z" fill="#2F5B98"/>
</svg>
