<svg width="30" height="29" viewBox="0 0 30 29" fill="none" xmlns="http://www.w3.org/2000/svg">
<path d="M15 0.03125C12.1878 0.03125 9.43875 0.865165 7.10049 2.42754C4.76223 3.98992 2.93978 6.21058 1.86359 8.80872C0.787411 11.4069 0.505832 14.2658 1.05447 17.0239C1.6031 19.7821 2.9573 22.3156 4.94583 24.3042C6.93436 26.2927 9.4679 27.6469 12.2261 28.1955C14.9842 28.7442 17.8431 28.4626 20.4413 27.3864C23.0394 26.3102 25.2601 24.4878 26.8225 22.1495C28.3848 19.8113 29.2188 17.0622 29.2188 14.25C29.2148 10.4802 27.7155 6.86589 25.0498 4.20022C22.3841 1.53455 18.7698 0.035231 15 0.03125ZM15 26.2812C12.6205 26.2812 10.2943 25.5756 8.3158 24.2536C6.33727 22.9316 4.7952 21.0526 3.88458 18.8542C2.97396 16.6557 2.7357 14.2367 3.19993 11.9028C3.66416 9.56899 4.81003 7.42522 6.49263 5.74262C8.17523 4.06002 10.319 2.91416 12.6528 2.44993C14.9867 1.9857 17.4057 2.22396 19.6042 3.13457C21.8026 4.04519 23.6816 5.58727 25.0036 7.5658C26.3256 9.54432 27.0313 11.8704 27.0313 14.25C27.0276 17.4398 25.7589 20.4979 23.5034 22.7534C21.2479 25.0089 18.1898 26.2776 15 26.2812ZM8.43751 11.5156C8.43751 11.1911 8.53373 10.8739 8.714 10.6041C8.89428 10.3343 9.15051 10.1241 9.45029 9.99988C9.75008 9.87571 10.08 9.84322 10.3982 9.90652C10.7165 9.96983 11.0088 10.1261 11.2382 10.3555C11.4677 10.585 11.6239 10.8773 11.6872 11.1956C11.7505 11.5138 11.718 11.8437 11.5939 12.1435C11.4697 12.4432 11.2594 12.6995 10.9896 12.8798C10.7198 13.06 10.4026 13.1562 10.0781 13.1562C9.64301 13.1562 9.22571 12.9834 8.91803 12.6757C8.61036 12.368 8.43751 11.9507 8.43751 11.5156ZM22.6563 11.5156C22.6563 11.8057 22.541 12.0839 22.3359 12.289C22.1308 12.4941 21.8526 12.6094 21.5625 12.6094H18.2813C17.9912 12.6094 17.713 12.4941 17.5079 12.289C17.3027 12.0839 17.1875 11.8057 17.1875 11.5156C17.1875 11.2255 17.3027 10.9473 17.5079 10.7422C17.713 10.5371 17.9912 10.4219 18.2813 10.4219H21.5625C21.8526 10.4219 22.1308 10.5371 22.3359 10.7422C22.541 10.9473 22.6563 11.2255 22.6563 11.5156ZM21.4149 18.0781C20.008 20.5104 17.6701 21.9062 15 21.9062C12.3299 21.9062 9.992 20.5117 8.5838 18.0781C8.51198 17.9537 8.46537 17.8164 8.44664 17.6739C8.4279 17.5315 8.4374 17.3868 8.4746 17.248C8.5118 17.1092 8.57596 16.9792 8.66343 16.8652C8.7509 16.7512 8.85996 16.6556 8.98438 16.5838C9.1088 16.512 9.24615 16.4654 9.38859 16.4466C9.53102 16.4279 9.67575 16.4374 9.81451 16.4746C9.95328 16.5118 10.0834 16.576 10.1973 16.6634C10.3113 16.7509 10.4069 16.86 10.4787 16.9844C11.4986 18.7494 13.1037 19.7188 15 19.7188C16.8963 19.7188 18.5014 18.748 19.5227 16.9844C19.591 16.8537 19.6851 16.7381 19.7993 16.6447C19.9135 16.5513 20.0454 16.482 20.1871 16.4409C20.3287 16.3998 20.4773 16.3878 20.6237 16.4056C20.7701 16.4234 20.9115 16.4706 21.0392 16.5444C21.1669 16.6182 21.2783 16.7171 21.3669 16.8351C21.4554 16.9532 21.5191 17.0879 21.5542 17.2311C21.5893 17.3744 21.595 17.5233 21.5711 17.6689C21.5471 17.8144 21.494 17.9536 21.4149 18.0781Z" fill="#2F5B98"/>
</svg>
