<svg width="24" height="18" viewBox="0 0 24 18" fill="none" xmlns="http://www.w3.org/2000/svg">
<path d="M23.249 9C23.249 9.24864 23.1503 9.4871 22.9744 9.66291C22.7986 9.83873 22.5602 9.9375 22.3115 9.9375H1.68652C1.43788 9.9375 1.19943 9.83873 1.02361 9.66291C0.847796 9.4871 0.749023 9.24864 0.749023 9C0.749023 8.75136 0.847796 8.5129 1.02361 8.33709C1.19943 8.16127 1.43788 8.0625 1.68652 8.0625H22.3115C22.5602 8.0625 22.7986 8.16127 22.9744 8.33709C23.1503 8.5129 23.249 8.75136 23.249 9ZM1.68652 2.4375H22.3115C22.5602 2.4375 22.7986 2.33873 22.9744 2.16291C23.1503 1.9871 23.249 1.74864 23.249 1.5C23.249 1.25136 23.1503 1.0129 22.9744 0.837088C22.7986 0.661272 22.5602 0.5625 22.3115 0.5625H1.68652C1.43788 0.5625 1.19943 0.661272 1.02361 0.837088C0.847796 1.0129 0.749023 1.25136 0.749023 1.5C0.749023 1.74864 0.847796 1.9871 1.02361 2.16291C1.19943 2.33873 1.43788 2.4375 1.68652 2.4375ZM22.3115 15.5625H1.68652C1.43788 15.5625 1.19943 15.6613 1.02361 15.8371C0.847796 16.0129 0.749023 16.2514 0.749023 16.5C0.749023 16.7486 0.847796 16.9871 1.02361 17.1629C1.19943 17.3387 1.43788 17.4375 1.68652 17.4375H22.3115C22.5602 17.4375 22.7986 17.3387 22.9744 17.1629C23.1503 16.9871 23.249 16.7486 23.249 16.5C23.249 16.2514 23.1503 16.0129 22.9744 15.8371C22.7986 15.6613 22.5602 15.5625 22.3115 15.5625Z" fill="white"/>
</svg>
