<svg width="20" height="21" viewBox="0 0 20 21" fill="none" xmlns="http://www.w3.org/2000/svg">
<path d="M11.0281 0.651133C11.7578 0.648333 12.4876 0.655667 13.2171 0.673133L13.4111 0.680133C13.6351 0.688133 13.8561 0.698133 14.1231 0.710133C15.1871 0.760133 15.9131 0.928133 16.5501 1.17513C17.2101 1.42913 17.7661 1.77313 18.3221 2.32913C18.8305 2.82874 19.2239 3.43308 19.4751 4.10013C19.7221 4.73713 19.8901 5.46413 19.9401 6.52813C19.9521 6.79413 19.9621 7.01613 19.9701 7.24013L19.9761 7.43413C19.9939 8.16333 20.0015 8.89273 19.9991 9.62213L20.0001 10.3681V11.6781C20.0026 12.4079 19.9949 13.1376 19.9771 13.8671L19.9711 14.0611C19.9631 14.2851 19.9531 14.5061 19.9411 14.7731C19.8911 15.8371 19.7211 16.5631 19.4751 17.2001C19.2247 17.8679 18.8312 18.4727 18.3221 18.9721C17.8221 19.4805 17.2174 19.8739 16.5501 20.1251C15.9131 20.3721 15.1871 20.5401 14.1231 20.5901C13.8561 20.6021 13.6351 20.6121 13.4111 20.6201L13.2171 20.6261C12.4876 20.6439 11.7578 20.6516 11.0281 20.6491L10.2821 20.6501H8.97309C8.24335 20.6526 7.51361 20.6449 6.78409 20.6271L6.59009 20.6211C6.3527 20.6125 6.11536 20.6025 5.87809 20.5911C4.81409 20.5411 4.08809 20.3711 3.45009 20.1251C2.78277 19.8745 2.17833 19.481 1.67909 18.9721C1.17013 18.4724 0.776313 17.8677 0.525089 17.2001C0.278089 16.5631 0.110089 15.8371 0.0600887 14.7731C0.0489516 14.5358 0.0389515 14.2985 0.0300887 14.0611L0.0250888 13.8671C0.0066524 13.1376 -0.00168183 12.4079 8.87195e-05 11.6781V9.62213C-0.00270225 8.89273 0.00463187 8.16333 0.0220888 7.43413L0.0290888 7.24013C0.0370888 7.01613 0.0470887 6.79413 0.0590887 6.52813C0.109089 5.46313 0.277089 4.73813 0.524089 4.10013C0.775461 3.43275 1.17005 2.82858 1.68009 2.33013C2.17898 1.82088 2.78305 1.42671 3.45009 1.17513C4.08809 0.928133 4.81309 0.760133 5.87809 0.710133L6.59009 0.680133L6.78409 0.675133C7.51327 0.656706 8.24267 0.648371 8.97209 0.650133L11.0281 0.651133ZM10.0001 5.65113C9.33759 5.64176 8.67985 5.76416 8.06507 6.0112C7.45029 6.25824 6.89074 6.62501 6.41893 7.09019C5.94713 7.55536 5.57249 8.10967 5.31678 8.7209C5.06106 9.33212 4.92938 9.98807 4.92938 10.6506C4.92938 11.3132 5.06106 11.9691 5.31678 12.5804C5.57249 13.1916 5.94713 13.7459 6.41893 14.2111C6.89074 14.6763 7.45029 15.043 8.06507 15.2901C8.67985 15.5371 9.33759 15.6595 10.0001 15.6501C11.3262 15.6501 12.5979 15.1233 13.5356 14.1857C14.4733 13.248 15.0001 11.9762 15.0001 10.6501C15.0001 9.32405 14.4733 8.05228 13.5356 7.1146C12.5979 6.17692 11.3262 5.65113 10.0001 5.65113ZM10.0001 7.65113C10.3986 7.64379 10.7946 7.71593 11.1649 7.86334C11.5352 8.01075 11.8724 8.23047 12.1569 8.50968C12.4413 8.78888 12.6673 9.12197 12.8215 9.48947C12.9758 9.85698 13.0553 10.2515 13.0554 10.6501C13.0554 11.0487 12.9761 11.4433 12.8219 11.8109C12.6678 12.1784 12.4419 12.5116 12.1576 12.7909C11.8732 13.0702 11.5361 13.29 11.1658 13.4375C10.7955 13.5851 10.3996 13.6573 10.0011 13.6501C9.20544 13.6501 8.44238 13.3341 7.87977 12.7715C7.31716 12.2088 7.00109 11.4458 7.00109 10.6501C7.00109 9.85448 7.31716 9.09142 7.87977 8.52881C8.44238 7.9662 9.20544 7.65013 10.0011 7.65013L10.0001 7.65113ZM15.2501 4.15113C14.9275 4.16404 14.6224 4.30128 14.3987 4.5341C14.175 4.76692 14.0501 5.07727 14.0501 5.40013C14.0501 5.723 14.175 6.03334 14.3987 6.26616C14.6224 6.49898 14.9275 6.63622 15.2501 6.64913C15.5816 6.64913 15.8996 6.51744 16.134 6.28302C16.3684 6.0486 16.5001 5.73065 16.5001 5.39913C16.5001 5.06761 16.3684 4.74967 16.134 4.51525C15.8996 4.28083 15.5816 4.14913 15.2501 4.14913V4.15113Z" fill="black"/>
</svg>
