<svg width="52" height="36" viewBox="0 0 52 36" fill="none" xmlns="http://www.w3.org/2000/svg">
<path d="M51.1657 12.4136L46.081 2.2586C45.8937 1.88483 45.6345 1.55156 45.3181 1.2778C45.0018 1.00405 44.6345 0.795188 44.2373 0.663138C43.84 0.531089 43.4206 0.478441 43.003 0.508201C42.5854 0.537961 42.1777 0.649546 41.8033 0.836584L36.8482 3.30871L26.4098 0.552181C26.142 0.482607 25.8608 0.482607 25.5929 0.552181L15.1546 3.30871L10.1995 0.836584C9.82506 0.649546 9.4174 0.537961 8.99978 0.508201C8.58216 0.478441 8.16276 0.531089 7.76553 0.663138C7.3683 0.795188 7.00101 1.00405 6.68465 1.2778C6.36829 1.55156 6.10905 1.88483 5.92174 2.2586L0.837068 12.4116C0.649693 12.7853 0.537906 13.1923 0.508093 13.6091C0.478279 14.026 0.531022 14.4446 0.66331 14.8412C0.795598 15.2377 1.00484 15.6043 1.27908 15.9201C1.55333 16.2359 1.88721 16.4947 2.26165 16.6816L7.6412 19.3686L18.6972 27.2503C18.8601 27.366 19.0432 27.4503 19.2371 27.4989L31.9886 30.681C32.2557 30.7479 32.5355 30.7446 32.8009 30.6714C33.0662 30.5982 33.3081 30.4576 33.5029 30.2634L44.4752 19.3089L49.7391 16.6816C50.4948 16.304 51.0694 15.6423 51.3365 14.842C51.6037 14.0417 51.5415 13.1682 51.1637 12.4136H51.1657ZM40.2293 19.0503L33.3734 13.5691C33.0662 13.3236 32.679 13.2001 32.2861 13.2225C31.8933 13.2449 31.5226 13.4116 31.2455 13.6904C27.6969 17.2584 23.742 16.8069 21.2196 15.2159L29.8348 6.86276H36.1727L41.5941 17.684L40.2293 19.0503ZM8.7729 3.68062L12.8514 5.71321L7.75676 15.8662L3.68624 13.8356L8.7729 3.68062ZM31.885 27.3736L20.307 24.4858L10.5043 17.4971L16.0831 6.35958L26.0014 3.73631L27.954 4.25142L18.9881 12.9386L18.9721 12.9565C18.6346 13.2934 18.3772 13.7017 18.2189 14.1512C18.0606 14.6006 18.0054 15.0798 18.0574 15.5535C18.1094 16.0271 18.2673 16.483 18.5194 16.8875C18.7715 17.2921 19.1114 17.6349 19.5141 17.8908C23.6105 20.5022 28.5537 20.0786 32.4469 16.8964L37.9559 21.3136L31.885 27.3736ZM44.2381 15.8642L39.1534 5.72116L43.2299 3.68062L48.3165 13.8356L44.2381 15.8642ZM26.7545 34.2948C26.6684 34.6386 26.4697 34.944 26.19 35.1623C25.9103 35.3807 25.5655 35.4995 25.2104 35.5C25.0794 35.4998 24.949 35.4838 24.8219 35.4523L16.5194 33.3799C16.3253 33.3321 16.142 33.2477 15.9795 33.1313L10.7295 29.3883C10.4066 29.1353 10.194 28.7678 10.1359 28.3622C10.0778 27.9567 10.1786 27.5443 10.4174 27.2112C10.6562 26.878 11.0146 26.6495 11.4179 26.5735C11.8211 26.4974 12.2383 26.5796 12.5824 26.8028L17.5854 30.3708L25.6029 32.3676C26.0129 32.47 26.3654 32.7307 26.5829 33.0925C26.8003 33.4543 26.8649 33.8874 26.7625 34.2968L26.7545 34.2948Z" fill="#000"/>
</svg>
