<svg width="150" height="49" viewBox="0 0 150 49" fill="none" xmlns="http://www.w3.org/2000/svg">
<path d="M120.753 5.47878C116.472 -3.02348 96.2906 -1.45807 75.6802 8.97927C55.0659 19.4166 41.8285 34.7652 46.1093 43.2712C50.3901 51.7735 70.5718 50.2081 91.1822 39.7707C111.796 29.3372 125.034 13.9848 120.753 5.48255V5.47878ZM90.8738 39.1597C73.8821 47.76 56.7775 48.1146 52.666 39.9518C48.5544 31.7852 58.9969 18.1945 75.9849 9.59412C92.9728 0.993783 110.081 0.639208 114.193 8.80198C118.304 16.9648 107.862 30.5593 90.8738 39.1597Z" fill="#E61326"/>
<path d="M142.09 28.6293V19.8984H144.45V23.4283H144.568L147.182 19.8984H149.932L146.996 23.7864L150 28.6293H147.182L145.23 25.3552L144.45 26.3784V28.6293H142.09Z" fill="white"/>
<path d="M132.798 28.6293V19.8984H136.549C137.194 19.8984 137.759 20.0164 138.243 20.2523C138.726 20.4882 139.103 20.8278 139.371 21.2712C139.64 21.7145 139.774 22.246 139.774 22.8656C139.774 23.4908 139.636 24.018 139.359 24.4472C139.084 24.8763 138.698 25.2003 138.2 25.4192C137.705 25.638 137.127 25.7474 136.465 25.7474H134.224V23.9058H135.989C136.267 23.9058 136.503 23.8717 136.698 23.8035C136.896 23.7324 137.047 23.6201 137.152 23.4667C137.26 23.3132 137.313 23.1128 137.313 22.8656C137.313 22.6155 137.26 22.4123 137.152 22.2559C137.047 22.0968 136.896 21.9803 136.698 21.9064C136.503 21.8296 136.267 21.7913 135.989 21.7913H135.158V28.6293H132.798ZM137.89 24.622L140.063 28.6293H137.5L135.378 24.622H137.89Z" fill="white"/>
<path d="M124.232 28.6293H121.686L124.555 19.8984H127.779L130.648 28.6293H128.102L126.201 22.3028H126.133L124.232 28.6293ZM123.757 25.1847H128.543V26.9582H123.757V25.1847Z" fill="white"/>
<path d="M113.907 28.6293V19.8984H117.658C118.303 19.8984 118.867 20.0263 119.351 20.2821C119.835 20.5379 120.211 20.8974 120.48 21.3607C120.748 21.8239 120.883 22.3654 120.883 22.9849C120.883 23.6102 120.744 24.1516 120.467 24.6092C120.193 25.0668 119.806 25.4192 119.309 25.6664C118.813 25.9137 118.235 26.0373 117.573 26.0373H115.333V24.1957H117.098C117.375 24.1957 117.611 24.1473 117.806 24.0507C118.004 23.9512 118.156 23.8106 118.26 23.6287C118.368 23.4468 118.422 23.2322 118.422 22.9849C118.422 22.7348 118.368 22.5217 118.26 22.3455C118.156 22.1664 118.004 22.03 117.806 21.9362C117.611 21.8396 117.375 21.7913 117.098 21.7913H116.266V28.6293H113.907Z" fill="white"/>
<path d="M101.457 28.6293V19.8984H107.72V21.8083H103.816V23.3089H107.397V25.2188H103.816V26.7194H107.703V28.6293H101.457Z" fill="white"/>
<path d="M99.073 23.1737H96.6798C96.6628 22.9748 96.6175 22.7943 96.544 22.6323C96.4733 22.4703 96.3742 22.331 96.2469 22.2145C96.1225 22.0951 95.9711 22.0042 95.7929 21.9417C95.6147 21.8763 95.4124 21.8436 95.1861 21.8436C94.7901 21.8436 94.4548 21.9403 94.1804 22.1335C93.9089 22.3268 93.7024 22.6039 93.5609 22.9648C93.4223 23.3258 93.353 23.7592 93.353 24.2651C93.353 24.7994 93.4237 25.247 93.5651 25.608C93.7094 25.9661 93.9173 26.2361 94.1889 26.418C94.4605 26.597 94.7872 26.6865 95.1691 26.6865C95.387 26.6865 95.5822 26.6595 95.7547 26.6055C95.9273 26.5487 96.0772 26.4677 96.2045 26.3625C96.3318 26.2574 96.4351 26.1309 96.5143 25.9831C96.5963 25.8325 96.6515 25.6634 96.6798 25.4758L99.073 25.4929C99.0447 25.8623 98.9415 26.2389 98.7633 26.6226C98.585 27.0034 98.3319 27.3558 98.0037 27.6798C97.6784 28.001 97.2753 28.2596 96.7943 28.4557C96.3134 28.6518 95.7547 28.7499 95.1182 28.7499C94.3205 28.7499 93.6048 28.5779 92.9711 28.234C92.3402 27.8901 91.8409 27.3843 91.4732 26.7164C91.1082 26.0485 90.9258 25.2314 90.9258 24.2651C90.9258 23.2931 91.1125 22.4746 91.4859 21.8095C91.8593 21.1416 92.3629 20.6372 92.9965 20.2961C93.6302 19.9522 94.3374 19.7803 95.1182 19.7803C95.667 19.7803 96.172 19.8556 96.6331 20.0062C97.0942 20.1568 97.4987 20.3771 97.8467 20.667C98.1947 20.9541 98.4747 21.3079 98.6869 21.7285C98.8991 22.1491 99.0278 22.6309 99.073 23.1737Z" fill="white"/>
<path d="M88.5312 19.8984V28.6293H86.1719V19.8984H88.5312Z" fill="white"/>
<path d="M77.877 28.6293V19.8984H83.9874V21.8083H80.2363V23.3089H83.614V25.2188H80.2363V28.6293H77.877Z" fill="white"/>
<path d="M69.5825 28.6293V19.8984H75.693V21.8083H71.9418V23.3089H75.3195V25.2188H71.9418V28.6293H69.5825Z" fill="white"/>
<path d="M67.1808 24.2651C67.1808 25.2371 66.9927 26.057 66.6164 26.7249C66.2402 27.3899 65.7324 27.8944 65.0931 28.2383C64.4537 28.5794 63.7408 28.7499 62.9544 28.7499C62.1623 28.7499 61.4466 28.5779 60.8073 28.234C60.1708 27.8873 59.6644 27.3814 59.2881 26.7164C58.9147 26.0485 58.728 25.2314 58.728 24.2651C58.728 23.2931 58.9147 22.4746 59.2881 21.8095C59.6644 21.1416 60.1708 20.6372 60.8073 20.2961C61.4466 19.9522 62.1623 19.7803 62.9544 19.7803C63.7408 19.7803 64.4537 19.9522 65.0931 20.2961C65.7324 20.6372 66.2402 21.1416 66.6164 21.8095C66.9927 22.4746 67.1808 23.2931 67.1808 24.2651ZM64.7536 24.2651C64.7536 23.7421 64.6843 23.3016 64.5457 22.9435C64.4099 22.5826 64.2076 22.3097 63.9389 22.125C63.673 21.9374 63.3448 21.8436 62.9544 21.8436C62.564 21.8436 62.2345 21.9374 61.9657 22.125C61.6998 22.3097 61.4975 22.5826 61.3589 22.9435C61.2231 23.3016 61.1552 23.7421 61.1552 24.2651C61.1552 24.788 61.2231 25.23 61.3589 25.5909C61.4975 25.949 61.6998 26.2218 61.9657 26.4094C62.2345 26.5942 62.564 26.6865 62.9544 26.6865C63.3448 26.6865 63.673 26.5942 63.9389 26.4094C64.2076 26.2218 64.4099 25.949 64.5457 25.5909C64.6843 25.23 64.7536 24.788 64.7536 24.2651Z" fill="white"/>
<path d="M46.4962 28.6293H43.9502L46.8187 19.8984H50.0437L52.9122 28.6293H50.3662L48.4651 22.3028H48.3972L46.4962 28.6293ZM46.021 25.1847H50.8075V26.9582H46.021V25.1847Z" fill="white"/>
<path d="M41.8117 19.8984V28.6293H39.8428L36.7027 24.0422H36.6518V28.6293H34.2925V19.8984H36.2953L39.3845 24.4685H39.4524V19.8984H41.8117Z" fill="white"/>
<path d="M31.8564 19.8984V28.6293H29.4971V19.8984H31.8564Z" fill="white"/>
<path d="M21.3599 28.6293V19.8984H23.7192V26.7194H27.2327V28.6293H21.3599Z" fill="white"/>
<path d="M18.9498 24.2651C18.9498 25.2371 18.7617 26.057 18.3855 26.7249C18.0092 27.3899 17.5014 27.8944 16.8621 28.2383C16.2228 28.5794 15.5099 28.7499 14.7235 28.7499C13.9314 28.7499 13.2156 28.5779 12.5763 28.234C11.9398 27.8873 11.4334 27.3814 11.0572 26.7164C10.6838 26.0485 10.4971 25.2314 10.4971 24.2651C10.4971 23.2931 10.6838 22.4746 11.0572 21.8095C11.4334 21.1416 11.9398 20.6372 12.5763 20.2961C13.2156 19.9522 13.9314 19.7803 14.7235 19.7803C15.5099 19.7803 16.2228 19.9522 16.8621 20.2961C17.5014 20.6372 18.0092 21.1416 18.3855 21.8095C18.7617 22.4746 18.9498 23.2931 18.9498 24.2651ZM16.5226 24.2651C16.5226 23.7421 16.4533 23.3016 16.3147 22.9435C16.1789 22.5826 15.9767 22.3097 15.7079 22.125C15.442 21.9374 15.1138 21.8436 14.7235 21.8436C14.3331 21.8436 14.0035 21.9374 13.7348 22.125C13.4688 22.3097 13.2666 22.5826 13.128 22.9435C12.9922 23.3016 12.9243 23.7421 12.9243 24.2651C12.9243 24.788 12.9922 25.23 13.128 25.5909C13.2666 25.949 13.4688 26.2218 13.7348 26.4094C14.0035 26.5942 14.3331 26.6865 14.7235 26.6865C15.1138 26.6865 15.442 26.5942 15.7079 26.4094C15.9767 26.2218 16.1789 25.949 16.3147 25.5909C16.4533 25.23 16.5226 24.788 16.5226 24.2651Z" fill="white"/>
<path d="M8.14725 23.1737H5.75399C5.73702 22.9748 5.69176 22.7943 5.61821 22.6323C5.54748 22.4703 5.44847 22.331 5.32117 22.2145C5.1967 22.0951 5.04535 22.0042 4.86713 21.9417C4.68891 21.8763 4.48664 21.8436 4.26033 21.8436C3.86428 21.8436 3.52906 21.9403 3.25466 22.1335C2.98308 22.3268 2.77657 22.6039 2.63512 22.9648C2.49651 23.3258 2.4272 23.7592 2.4272 24.2651C2.4272 24.7994 2.49792 25.247 2.63937 25.608C2.78364 25.9661 2.99157 26.2361 3.26314 26.418C3.53472 26.597 3.86146 26.6865 4.24336 26.6865C4.46118 26.6865 4.65638 26.6595 4.82894 26.6055C5.0015 26.5487 5.15144 26.4677 5.27874 26.3625C5.40604 26.2574 5.50929 26.1309 5.5885 25.9831C5.67054 25.8325 5.7257 25.6634 5.75399 25.4758L8.14725 25.4929C8.11896 25.8623 8.0157 26.2389 7.83748 26.6226C7.65926 27.0034 7.40607 27.3558 7.07792 27.6798C6.7526 28.001 6.34948 28.2596 5.86856 28.4557C5.38765 28.6518 4.82894 28.7499 4.19244 28.7499C3.39469 28.7499 2.67897 28.5779 2.0453 28.234C1.41445 27.8901 0.915151 27.3843 0.547393 26.7164C0.182464 26.0485 0 25.2314 0 24.2651C0 23.2931 0.186708 22.4746 0.560123 21.8095C0.933539 21.1416 1.43708 20.6372 2.07076 20.2961C2.70443 19.9522 3.41166 19.7803 4.19244 19.7803C4.74124 19.7803 5.2462 19.8556 5.70732 20.0062C6.16843 20.1568 6.57296 20.3771 6.92092 20.667C7.26887 20.9541 7.54893 21.3079 7.7611 21.7285C7.97327 22.1491 8.10198 22.6309 8.14725 23.1737Z" fill="white"/>
</svg>
