<svg width="302" height="99" viewBox="0 0 302 99" fill="none" xmlns="http://www.w3.org/2000/svg">
<path d="M243.103 11.5306C234.484 -5.58727 193.855 -2.43558 152.361 18.5783C110.86 39.5921 84.2106 70.4939 92.8288 87.6194C101.447 104.737 142.077 101.586 183.57 80.5717C225.071 59.5655 251.721 28.6561 243.103 11.5382V11.5306ZM182.949 79.3414C148.741 96.6568 114.306 97.3707 106.029 80.9363C97.7514 64.4943 118.774 37.1315 152.975 19.8162C187.175 2.50082 221.618 1.78694 229.895 18.2213C238.173 34.6557 217.149 62.0261 182.949 79.3414Z" fill="#E61326"/>
<path d="M286.076 58.1406V40.5625H290.826V47.6693H291.065L296.327 40.5625H301.863L295.952 48.3903L302 58.1406H296.327L292.398 51.5488L290.826 53.6088V58.1406H286.076Z" fill="black"/>
<path d="M267.357 58.1406V40.5625H274.909C276.208 40.5625 277.344 40.8 278.318 41.2749C279.292 41.7498 280.049 42.4336 280.59 43.3263C281.131 44.2189 281.402 45.2889 281.402 46.5363C281.402 47.7952 281.123 48.8566 280.565 49.7206C280.012 50.5847 279.235 51.237 278.232 51.6776C277.236 52.1182 276.071 52.3385 274.738 52.3385H270.227V48.6306H273.781C274.34 48.6306 274.815 48.5619 275.208 48.4246C275.607 48.2815 275.911 48.0555 276.122 47.7465C276.339 47.4375 276.447 47.0341 276.447 46.5363C276.447 46.0328 276.339 45.6237 276.122 45.3089C275.911 44.9885 275.607 44.7539 275.208 44.6051C274.815 44.4506 274.34 44.3734 273.781 44.3734H272.107V58.1406H267.357ZM277.609 50.0726L281.983 58.1406H276.823L272.551 50.0726H277.609Z" fill="black"/>
<path d="M250.116 58.1406H244.99L250.765 40.5625H257.258L263.033 58.1406H257.907L254.08 45.4034H253.943L250.116 58.1406ZM249.159 51.2055H258.796V54.7761H249.159V51.2055Z" fill="black"/>
<path d="M229.326 58.1406V40.5625H236.878C238.177 40.5625 239.313 40.82 240.287 41.335C241.261 41.85 242.018 42.5738 242.559 43.5065C243.101 44.4392 243.371 45.5292 243.371 46.7766C243.371 48.0355 243.092 49.1256 242.534 50.0468C241.981 50.9681 241.204 51.6776 240.202 52.1754C239.205 52.6732 238.04 52.9221 236.707 52.9221H232.197V49.2142H235.751C236.309 49.2142 236.784 49.117 237.177 48.9224C237.576 48.7221 237.881 48.4389 238.091 48.0727C238.308 47.7065 238.416 47.2745 238.416 46.7766C238.416 46.2731 238.308 45.844 238.091 45.4892C237.881 45.1287 237.576 44.854 237.177 44.6652C236.784 44.4707 236.309 44.3734 235.751 44.3734H234.076V58.1406H229.326Z" fill="black"/>
<path d="M204.256 58.1406V40.5625H216.866V44.4077H209.006V47.429H216.216V51.2742H209.006V54.2954H216.831V58.1406H204.256Z" fill="black"/>
<path d="M199.472 47.1544H194.653C194.619 46.7539 194.528 46.3905 194.38 46.0643C194.238 45.7382 194.038 45.4578 193.782 45.2232C193.531 44.9829 193.227 44.7998 192.868 44.6739C192.509 44.5423 192.102 44.4765 191.646 44.4765C190.849 44.4765 190.174 44.671 189.621 45.0601C189.075 45.4492 188.659 46.0071 188.374 46.7338C188.095 47.4605 187.956 48.3331 187.956 49.3517C187.956 50.4274 188.098 51.3286 188.383 52.0553C188.673 52.7763 189.092 53.3199 189.639 53.6861C190.185 54.0466 190.843 54.2269 191.612 54.2269C192.051 54.2269 192.444 54.1725 192.791 54.0638C193.138 53.9493 193.44 53.7863 193.697 53.5745C193.953 53.3628 194.161 53.1082 194.32 52.8106C194.485 52.5074 194.596 52.1669 194.653 51.7893L199.472 51.8236C199.415 52.5675 199.207 53.3256 198.848 54.0981C198.489 54.8649 197.979 55.5744 197.319 56.2267C196.664 56.8733 195.852 57.394 194.884 57.7888C193.916 58.1837 192.791 58.3811 191.509 58.3811C189.903 58.3811 188.462 58.0349 187.187 57.3425C185.917 56.6501 184.911 55.6316 184.171 54.2869C183.436 52.9423 183.069 51.2972 183.069 49.3517C183.069 47.3947 183.445 45.7468 184.197 44.4078C184.948 43.0631 185.962 42.0475 187.238 41.3608C188.514 40.6684 189.938 40.3223 191.509 40.3223C192.614 40.3223 193.631 40.4739 194.559 40.7772C195.488 41.0804 196.302 41.5239 197.003 42.1075C197.703 42.6855 198.267 43.3979 198.694 44.2447C199.121 45.0916 199.381 46.0615 199.472 47.1544Z" fill="black"/>
<path d="M178.241 40.5625V58.1406H173.491V40.5625H178.241Z" fill="black"/>
<path d="M156.788 58.1406V40.5625H169.09V44.4077H161.538V47.429H168.338V51.2742H161.538V58.1406H156.788Z" fill="black"/>
<path d="M140.093 58.1406V40.5625H152.395V44.4077H144.843V47.429H151.643V51.2742H144.843V58.1406H140.093Z" fill="black"/>
<path d="M135.251 49.3517C135.251 51.3086 134.873 52.9594 134.115 54.3041C133.358 55.6431 132.335 56.6587 131.048 57.3511C129.761 58.0377 128.326 58.3811 126.742 58.3811C125.148 58.3811 123.707 58.0349 122.42 57.3425C121.138 56.6444 120.119 55.6259 119.361 54.2869C118.609 52.9423 118.233 51.2972 118.233 49.3517C118.233 47.3947 118.609 45.7468 119.361 44.4078C120.119 43.0631 121.138 42.0475 122.42 41.3608C123.707 40.6684 125.148 40.3223 126.742 40.3223C128.326 40.3223 129.761 40.6684 131.048 41.3608C132.335 42.0475 133.358 43.0631 134.115 44.4078C134.873 45.7468 135.251 47.3947 135.251 49.3517ZM130.365 49.3517C130.365 48.2988 130.225 47.4119 129.946 46.6909C129.673 45.9642 129.265 45.4149 128.724 45.043C128.189 44.6653 127.528 44.4765 126.742 44.4765C125.956 44.4765 125.293 44.6653 124.752 45.043C124.216 45.4149 123.809 45.9642 123.53 46.6909C123.257 47.4119 123.12 48.2988 123.12 49.3517C123.12 50.4045 123.257 51.2943 123.53 52.021C123.809 52.742 124.216 53.2913 124.752 53.669C125.293 54.0409 125.956 54.2269 126.742 54.2269C127.528 54.2269 128.189 54.0409 128.724 53.669C129.265 53.2913 129.673 52.742 129.946 52.021C130.225 51.2943 130.365 50.4045 130.365 49.3517Z" fill="black"/>
<path d="M93.6171 58.1406H88.4912L94.2664 40.5625H100.759L106.534 58.1406H101.408L97.5811 45.4034H97.4444L93.6171 58.1406ZM92.6603 51.2055H102.297V54.7761H92.6603V51.2055Z" fill="black"/>
<path d="M84.177 40.5625V58.1406H80.213L73.8911 48.9053H73.7886V58.1406H69.0386V40.5625H73.0709L79.2903 49.7636H79.427V40.5625H84.177Z" fill="black"/>
<path d="M64.1401 40.5625V58.1406H59.3901V40.5625H64.1401Z" fill="black"/>
<path d="M43.0073 58.1406V40.5625H47.7573V54.2954H54.831V58.1406H43.0073Z" fill="black"/>
<path d="M38.1586 49.3517C38.1586 51.3086 37.7798 52.9594 37.0223 54.3041C36.2648 55.6431 35.2425 56.6587 33.9553 57.3511C32.6682 58.0377 31.2329 58.3811 29.6496 58.3811C28.0549 58.3811 26.6139 58.0349 25.3268 57.3425C24.0453 56.6444 23.0258 55.6259 22.2683 54.2869C21.5165 52.9423 21.1406 51.2972 21.1406 49.3517C21.1406 47.3947 21.5165 45.7468 22.2683 44.4078C23.0258 43.0631 24.0453 42.0475 25.3268 41.3608C26.6139 40.6684 28.0549 40.3223 29.6496 40.3223C31.2329 40.3223 32.6682 40.6684 33.9553 41.3608C35.2425 42.0475 36.2648 43.0631 37.0223 44.4078C37.7798 45.7468 38.1586 47.3947 38.1586 49.3517ZM33.2719 49.3517C33.2719 48.2988 33.1323 47.4119 32.8533 46.6909C32.5799 45.9642 32.1727 45.4149 31.6316 45.043C31.0962 44.6653 30.4356 44.4765 29.6496 44.4765C28.8636 44.4765 28.2001 44.6653 27.659 45.043C27.1237 45.4149 26.7165 45.9642 26.4374 46.6909C26.164 47.4119 26.0273 48.2988 26.0273 49.3517C26.0273 50.4045 26.164 51.2943 26.4374 52.021C26.7165 52.742 27.1237 53.2913 27.659 53.669C28.2001 54.0409 28.8636 54.2269 29.6496 54.2269C30.4356 54.2269 31.0962 54.0409 31.6316 53.669C32.1727 53.2913 32.5799 52.742 32.8533 52.021C33.1323 51.2943 33.2719 50.4045 33.2719 49.3517Z" fill="black"/>
<path d="M16.4028 47.1544H11.5845C11.5503 46.7539 11.4592 46.3905 11.3111 46.0643C11.1687 45.7382 10.9694 45.4578 10.7131 45.2232C10.4625 44.9829 10.1578 44.7998 9.79898 44.6739C9.44017 44.5423 9.03295 44.4765 8.57731 44.4765C7.77995 44.4765 7.10505 44.671 6.55259 45.0601C6.00583 45.4492 5.59006 46.0071 5.30529 46.7338C5.02621 47.4605 4.88668 48.3331 4.88668 49.3517C4.88668 50.4274 5.02906 51.3286 5.31383 52.0553C5.6043 52.7763 6.02291 53.3199 6.56968 53.6861C7.11644 54.0466 7.77426 54.2269 8.54314 54.2269C8.98169 54.2269 9.37467 54.1725 9.7221 54.0638C10.0695 53.9493 10.3714 53.7863 10.6277 53.5745C10.884 53.3628 11.0918 53.1082 11.2513 52.8106C11.4165 52.5074 11.5275 52.1669 11.5845 51.7893L16.4028 51.8236C16.3459 52.5675 16.138 53.3256 15.7792 54.0981C15.4204 54.8649 14.9106 55.5744 14.25 56.2267C13.595 56.8733 12.7834 57.394 11.8152 57.7888C10.8469 58.1837 9.72209 58.3811 8.44062 58.3811C6.83451 58.3811 5.39357 58.0349 4.11779 57.3425C2.84771 56.6501 1.84247 55.6316 1.10207 54.2869C0.367355 52.9423 0 51.2972 0 49.3517C0 47.3947 0.375898 45.7468 1.12769 44.4078C1.87949 43.0631 2.89328 42.0475 4.16905 41.3608C5.44483 40.6684 6.86869 40.3223 8.44062 40.3223C9.54554 40.3223 10.5622 40.4739 11.4905 40.7772C12.4189 41.0804 13.2333 41.5239 13.9339 42.1075C14.6344 42.6855 15.1982 43.3979 15.6254 44.2447C16.0526 45.0916 16.3117 46.0615 16.4028 47.1544Z" fill="black"/>
</svg>
