<svg width="36" height="36" viewBox="0 0 36 36" fill="none" xmlns="http://www.w3.org/2000/svg">
<path d="M8.1925 35.5H3.51292C2.67097 35.5 1.95833 35.2083 1.375 34.625C0.791667 34.0417 0.5 33.329 0.5 32.4871V27.8075H3V32.4871C3 32.6368 3.04806 32.7597 3.14417 32.8558C3.24028 32.9519 3.36319 33 3.51292 33H8.1925V35.5ZM27.8075 35.5V33H32.4871C32.6368 33 32.7597 32.9519 32.8558 32.8558C32.9519 32.7597 33 32.6368 33 32.4871V27.8075H35.5V32.4871C35.5 33.329 35.2083 34.0417 34.625 34.625C34.0417 35.2083 33.329 35.5 32.4871 35.5H27.8075ZM18 28.1921C14.8483 28.1921 12.0037 27.2782 9.46625 25.4504C6.92903 23.6224 5.04611 21.1389 3.8175 18C5.04611 14.8611 6.92903 12.3776 9.46625 10.5496C12.0037 8.72181 14.8483 7.80792 18 7.80792C21.1517 7.80792 23.9962 8.72181 26.5337 10.5496C29.071 12.3776 30.9539 14.8611 32.1825 18C30.9539 21.1389 29.071 23.6224 26.5337 25.4504C23.9962 27.2782 21.1517 28.1921 18 28.1921ZM18 25.6925C20.4872 25.6925 22.7393 25.0151 24.7563 23.6604C26.7735 22.3057 28.3397 20.4189 29.455 18C28.3397 15.5811 26.7735 13.6943 24.7563 12.3396C22.7393 10.9849 20.4872 10.3075 18 10.3075C15.5128 10.3075 13.2607 10.9849 11.2438 12.3396C9.22653 13.6943 7.66028 15.5811 6.545 18C7.66028 20.4189 9.22653 22.3057 11.2438 23.6604C13.2607 25.0151 15.5128 25.6925 18 25.6925ZM18 23.3046C19.4722 23.3046 20.7243 22.7885 21.7563 21.7562C22.7885 20.7243 23.3046 19.4722 23.3046 18C23.3046 16.5278 22.7885 15.2757 21.7563 14.2437C20.7243 13.2115 19.4722 12.6954 18 12.6954C16.5278 12.6954 15.2757 13.2115 14.2437 14.2437C13.2115 15.2757 12.6954 16.5278 12.6954 18C12.6954 19.4722 13.2115 20.7243 14.2437 21.7562C15.2757 22.7885 16.5278 23.3046 18 23.3046ZM18 20.8046C17.22 20.8046 16.5576 20.5321 16.0129 19.9871C15.4679 19.4424 15.1954 18.78 15.1954 18C15.1954 17.22 15.4679 16.5576 16.0129 16.0129C16.5576 15.4679 17.22 15.1954 18 15.1954C18.78 15.1954 19.4424 15.4679 19.9871 16.0129C20.5321 16.5576 20.8046 17.22 20.8046 18C20.8046 18.78 20.5321 19.4424 19.9871 19.9871C19.4424 20.5321 18.78 20.8046 18 20.8046ZM0.5 8.1925V3.51292C0.5 2.67097 0.791667 1.95833 1.375 1.375C1.95833 0.791667 2.67097 0.5 3.51292 0.5H8.1925V3H3.51292C3.36319 3 3.24028 3.04806 3.14417 3.14417C3.04806 3.24028 3 3.36319 3 3.51292V8.1925H0.5ZM33 8.1925V3.51292C33 3.36319 32.9519 3.24028 32.8558 3.14417C32.7597 3.04806 32.6368 3 32.4871 3H27.8075V0.5H32.4871C33.329 0.5 34.0417 0.791667 34.625 1.375C35.2083 1.95833 35.5 2.67097 35.5 3.51292V8.1925H33Z" fill="#000"/>
</svg>
