<svg width="6" height="8" viewBox="0 0 6 8" fill="none" xmlns="http://www.w3.org/2000/svg">
<path d="M5.08341 4.36515L1.64591 7.80265C1.54905 7.89952 1.41767 7.95394 1.28068 7.95394C1.14369 7.95394 1.01231 7.89952 0.915445 7.80265C0.818579 7.70579 0.76416 7.57441 0.76416 7.43742C0.76416 7.30043 0.818579 7.16905 0.915445 7.07218L3.98814 4.00035L0.916305 0.927652C0.868341 0.879689 0.830295 0.822748 0.804337 0.760081C0.77838 0.697414 0.765019 0.630248 0.765019 0.562418C0.765019 0.494588 0.77838 0.427421 0.804337 0.364754C0.830295 0.302087 0.868341 0.245147 0.916305 0.197184C0.964268 0.14922 1.02121 0.111174 1.08388 0.0852162C1.14654 0.0592587 1.21371 0.0458984 1.28154 0.0458984C1.34937 0.0458984 1.41654 0.0592587 1.4792 0.0852162C1.54187 0.111174 1.59881 0.14922 1.64677 0.197184L5.08427 3.63468C5.13229 3.68264 5.17036 3.73961 5.19631 3.80232C5.22226 3.86502 5.23558 3.93223 5.2355 4.0001C5.23542 4.06796 5.22194 4.13514 5.19585 4.19778C5.16975 4.26043 5.13154 4.31731 5.08341 4.36515Z" fill="black"/>
</svg>
