<svg width="36" height="36" viewBox="0 0 36 36" fill="none" xmlns="http://www.w3.org/2000/svg">
<path d="M18 0.5C14.5388 0.5 11.1554 1.52636 8.27753 3.44928C5.39967 5.37221 3.15665 8.10533 1.83212 11.303C0.507582 14.5007 0.161024 18.0194 0.836265 21.4141C1.51151 24.8087 3.17822 27.9269 5.62564 30.3744C8.07306 32.8218 11.1913 34.4885 14.5859 35.1637C17.9806 35.839 21.4993 35.4924 24.697 34.1679C27.8947 32.8433 30.6278 30.6003 32.5507 27.7225C34.4736 24.8446 35.5 21.4612 35.5 18C35.4951 13.3602 33.6498 8.91187 30.369 5.63104C27.0881 2.35022 22.6398 0.5049 18 0.5ZM18 3.19231C20.8689 3.18926 23.6762 4.02443 26.0769 5.59519V8.91346L22.3464 13.2447L17.051 13.9615L16.9988 13.9245L13.6889 11.7606C13.3955 11.5539 13.0637 11.4079 12.713 11.3313C12.3623 11.2547 11.9999 11.249 11.647 11.3146C11.294 11.3801 10.9578 11.5155 10.658 11.7129C10.3582 11.9103 10.1009 12.1657 9.90121 12.4639L6.37765 17.7308C6.08411 18.1697 5.92612 18.6852 5.92332 19.2132L5.88462 25.3096L5.33438 25.6714C3.97411 23.4256 3.23546 20.8584 3.19413 18.2331C3.15279 15.6078 3.81026 13.0187 5.09915 10.7311C6.38804 8.44361 8.26199 6.53992 10.529 5.21518C12.7959 3.89045 15.3744 3.1923 18 3.19231ZM6.94304 27.8387L7.36707 27.5611C7.73735 27.3168 8.04155 26.9849 8.25262 26.5947C8.46369 26.2046 8.5751 25.7683 8.57693 25.3248L8.61226 19.2284L12.1392 13.9615C12.1565 13.9748 12.1744 13.9872 12.193 13.9986L15.5029 16.1642C16.0576 16.5557 16.7401 16.7222 17.4127 16.6303L22.7115 15.9118C23.365 15.8246 23.9637 15.5007 24.3942 15.0014L28.1248 10.6668C28.542 10.178 28.7706 9.5561 28.7692 8.91346V7.84832C30.59 9.77465 31.8595 12.155 32.4447 14.7403C33.03 17.3255 32.9095 20.0206 32.0959 22.5433L29.38 20.0596C29.0025 19.713 28.5339 19.4814 28.0292 19.392C27.5246 19.3026 27.0049 19.3591 26.5312 19.5548L21.4058 21.6834C20.9772 21.8633 20.6022 22.1506 20.3169 22.5175C20.0316 22.8844 19.8456 23.3187 19.7769 23.7784L19.3748 26.5026C19.2781 27.1584 19.4267 27.8267 19.7922 28.3797C20.1576 28.9326 20.7142 29.3314 21.3553 29.4995L24.9663 30.4519L25.3635 30.8507C22.4147 32.5426 18.9731 33.1668 15.618 32.6182C12.2629 32.0696 9.19932 30.3817 6.94304 27.8387ZM27.5913 29.274L26.8678 28.5488C26.5303 28.21 26.1086 27.9672 25.6462 27.8454L22.0385 26.893L22.4406 24.1687L27.5644 22.0385L30.9567 25.1481C30.0921 26.7145 28.9521 28.1122 27.5913 29.274Z" fill="#000"/>
</svg>
