<svg width="41" height="41" viewBox="0 0 41 41" fill="none" xmlns="http://www.w3.org/2000/svg">
<mask id="mask0_106_1760" style="mask-type:alpha" maskUnits="userSpaceOnUse" x="0" y="0" width="41" height="41">
<rect x="0.5" y="0.5" width="40" height="40" fill="#D9D9D9"/>
</mask>
<g mask="url(#mask0_106_1760)">
<path d="M20.5028 36.3333C18.3128 36.3333 16.2543 35.9177 14.3273 35.0866C12.4004 34.2555 10.7243 33.1276 9.299 31.7029C7.87373 30.2782 6.74525 28.6027 5.91359 26.6766C5.0822 24.7505 4.6665 22.6926 4.6665 20.5029C4.6665 18.3129 5.08206 16.2544 5.91317 14.3275C6.74428 12.4005 7.8722 10.7244 9.29692 9.29913C10.7216 7.87385 12.3971 6.74538 14.3232 5.91371C16.2493 5.08232 18.3072 4.66663 20.4969 4.66663C22.6869 4.66663 24.7454 5.08218 26.6723 5.91329C28.5993 6.7444 30.2754 7.87232 31.7007 9.29704C33.1259 10.7218 34.2544 12.3972 35.0861 14.3233C35.9175 16.2494 36.3332 18.3073 36.3332 20.497C36.3332 22.687 35.9176 24.7455 35.0865 26.6725C34.2554 28.5994 33.1275 30.2755 31.7028 31.7008C30.278 33.1261 28.6026 34.2545 26.6765 35.0862C24.7504 35.9176 22.6925 36.3333 20.5028 36.3333ZM20.4998 33.8333C24.2221 33.8333 27.3748 32.5416 29.9582 29.9583C32.5415 27.375 33.8332 24.2222 33.8332 20.5C33.8332 16.7777 32.5415 13.625 29.9582 11.0416C27.3748 8.45829 24.2221 7.16663 20.4998 7.16663C16.7776 7.16663 13.6248 8.45829 11.0415 11.0416C8.45817 13.625 7.1665 16.7777 7.1665 20.5C7.1665 24.2222 8.45817 27.375 11.0415 29.9583C13.6248 32.5416 16.7776 33.8333 20.4998 33.8333ZM20.5036 29.6666C17.9583 29.6666 15.7936 28.7758 14.0094 26.9941C12.2253 25.2125 11.3332 23.049 11.3332 20.5037C11.3332 17.9584 12.224 15.7937 14.0057 14.0095C15.7873 12.2254 17.9508 11.3333 20.4961 11.3333C23.0414 11.3333 25.2061 12.2241 26.9903 14.0058C28.7744 15.7875 29.6665 17.9509 29.6665 20.4962C29.6665 23.0415 28.7757 25.2062 26.994 26.9904C25.2123 28.7745 23.0489 29.6666 20.5036 29.6666ZM20.4998 27.1666C22.3332 27.1666 23.9026 26.5138 25.2082 25.2083C26.5137 23.9027 27.1665 22.3333 27.1665 20.5C27.1665 18.6666 26.5137 17.0972 25.2082 15.7916C23.9026 14.4861 22.3332 13.8333 20.4998 13.8333C18.6665 13.8333 17.0971 14.4861 15.7915 15.7916C14.4859 17.0972 13.8332 18.6666 13.8332 20.5C13.8332 22.3333 14.4859 23.9027 15.7915 25.2083C17.0971 26.5138 18.6665 27.1666 20.4998 27.1666ZM20.4998 23C19.8182 23 19.2311 22.7537 18.7386 22.2612C18.2461 21.7687 17.9998 21.1816 17.9998 20.5C17.9998 19.8183 18.2461 19.2312 18.7386 18.7387C19.2311 18.2462 19.8182 18 20.4998 18C21.1815 18 21.7686 18.2462 22.2611 18.7387C22.7536 19.2312 22.9998 19.8183 22.9998 20.5C22.9998 21.1816 22.7536 21.7687 22.2611 22.2612C21.7686 22.7537 21.1815 23 20.4998 23Z" fill="#000"/>
</g>
</svg>
